<?xml version="1.0" encoding="utf-8"?>
<!-- Generator: Adobe Illustrator 16.0.0, SVG Export Plug-In . SVG Version: 6.00 Build 0)  -->
<!DOCTYPE svg PUBLIC "-//W3C//DTD SVG 1.1//EN" "http://www.w3.org/Graphics/SVG/1.1/DTD/svg11.dtd">
<svg version="1.1" id="Layer_1" xmlns="http://www.w3.org/2000/svg" xmlns:xlink="http://www.w3.org/1999/xlink" x="0px" y="0px"
	 width="75.375px" height="14.25px" viewBox="0 0 75.375 14.25" enable-background="new 0 0 75.375 14.25" xml:space="preserve">
<path d="M0,14h16v-2H0V14z M0,8h16V6H0V8z M0,2h16v-2.001H0V2z"/>
<g>
	<path d="M21.66-0.033h2.207l4.787,8.273l4.786-8.273h2.167v13.967h-1.714V2.43l-4.609,7.958h-1.3l-4.63-7.998v11.544H21.66V-0.033z
		"/>
	<path d="M39.391-0.033h8.392v1.556h-6.58v4.393h4.965v1.536h-4.965v4.925h6.6v1.557h-8.411V-0.033z"/>
	<path d="M50.6-0.033h2.187l6.776,11.505V-0.033h1.693v13.967h-2.187L52.293,2.43v11.504H50.6V-0.033z"/>
	<path d="M64.802,9.028v-9.062h1.832v8.924c0,2.62,1.183,3.684,3.369,3.684s3.388-1.063,3.388-3.684v-8.924h1.832v9.062
		c0,3.625-2.146,5.161-5.22,5.161C66.891,14.189,64.802,12.692,64.802,9.028z"/>
</g>
</svg>
