<?xml version="1.0" encoding="utf-8"?>
<!-- Generator: Adobe Illustrator 16.0.0, SVG Export Plug-In . SVG Version: 6.00 Build 0)  -->
<!DOCTYPE svg PUBLIC "-//W3C//DTD SVG 1.1//EN" "http://www.w3.org/Graphics/SVG/1.1/DTD/svg11.dtd">
<svg version="1.1" id="Layer_1" xmlns="http://www.w3.org/2000/svg" xmlns:xlink="http://www.w3.org/1999/xlink" x="0px" y="0px"
	 width="57.083px" height="57.75px" viewBox="0 0 57.083 57.75" enable-background="new 0 0 57.083 57.75" xml:space="preserve">
<g>
	<defs>
		<rect id="SVGID_1_" x="-22.583" y="-19.29" width="99.213" height="99.206"/>
	</defs>
	<clipPath id="SVGID_2_">
		<use xlink:href="#SVGID_1_"  overflow="visible"/>
	</clipPath>
	<path clip-path="url(#SVGID_2_)" d="M22.944,45.773c-12.562,0-22.781-10.219-22.781-22.779S10.382,0.213,22.944,0.213
		s22.779,10.219,22.779,22.781S35.504,45.773,22.944,45.773 M22.944,5.903c-9.425,0-17.091,7.666-17.091,17.091
		c0,9.422,7.666,17.088,17.091,17.088c9.423,0,17.089-7.666,17.089-17.088C40.034,13.569,32.368,5.903,22.944,5.903"/>
	<path clip-path="url(#SVGID_2_)" d="M54.012,57.44c-0.728,0-1.457-0.277-2.012-0.833L34.922,39.53c-1.112-1.11-1.112-2.914,0-4.023
		c1.111-1.111,2.911-1.111,4.022,0l17.077,17.077c1.112,1.11,1.112,2.914,0,4.023C55.467,57.163,54.738,57.44,54.012,57.44"/>
</g>
</svg>
