<?xml version="1.0" encoding="utf-8"?>
<!-- Generator: Adobe Illustrator 16.0.0, SVG Export Plug-In . SVG Version: 6.00 Build 0)  -->
<!DOCTYPE svg PUBLIC "-//W3C//DTD SVG 1.1//EN" "http://www.w3.org/Graphics/SVG/1.1/DTD/svg11.dtd">
<svg version="1.1" id="Layer_1" xmlns="http://www.w3.org/2000/svg" xmlns:xlink="http://www.w3.org/1999/xlink" x="0px" y="0px"
	 width="40px" height="140px" viewBox="0 0 40 140" enable-background="new 0 0 40 140" xml:space="preserve">
<path d="M20,100c-11.046,0-20,8.954-20,20s8.954,20,20,20s20-8.954,20-20S31.046,100,20,100z M27.539,121.414l-10.25,10.251
	c-0.39,0.391-0.902,0.586-1.414,0.586s-1.023-0.195-1.414-0.586c-0.781-0.781-0.781-2.047,0-2.828L23.297,120l-8.836-8.836
	c-0.781-0.781-0.781-2.047,0-2.828c0.78-0.781,2.048-0.781,2.828,0l10.25,10.25C28.32,119.367,28.32,120.633,27.539,121.414z"/>
<path fill="#FFFFFF" d="M20,50C8.954,50,0,58.954,0,70s8.954,20,20,20s20-8.954,20-20S31.046,50,20,50z M27.539,71.414
	l-10.25,10.251c-0.39,0.391-0.902,0.586-1.414,0.586s-1.023-0.195-1.414-0.586c-0.781-0.781-0.781-2.047,0-2.828L23.297,70
	l-8.836-8.836c-0.781-0.781-0.781-2.047,0-2.828c0.78-0.781,2.048-0.781,2.828,0l10.25,10.25
	C28.32,69.367,28.32,70.633,27.539,71.414z"/>
<path fill="#0099FF" d="M20,0C8.954,0,0,8.954,0,20s8.954,20,20,20s20-8.954,20-20S31.046,0,20,0z M27.539,21.414l-10.25,10.251
	c-0.39,0.391-0.902,0.586-1.414,0.586s-1.023-0.195-1.414-0.586c-0.781-0.781-0.781-2.047,0-2.828L23.297,20l-8.836-8.836
	c-0.781-0.781-0.781-2.047,0-2.828c0.78-0.781,2.048-0.781,2.828,0l10.25,10.25C28.32,19.367,28.32,20.633,27.539,21.414z"/>
</svg>
