<?xml version="1.0" encoding="utf-8"?>
<!-- Generator: Adobe Illustrator 18.1.1, SVG Export Plug-In . SVG Version: 6.00 Build 0)  -->
<!DOCTYPE svg PUBLIC "-//W3C//DTD SVG 1.1//EN" "http://www.w3.org/Graphics/SVG/1.1/DTD/svg11.dtd">
<svg version="1.1" id="Layer_1" xmlns="http://www.w3.org/2000/svg" xmlns:xlink="http://www.w3.org/1999/xlink" x="0px" y="0px"
	 viewBox="0 0 24 27" enable-background="new 0 0 24 27" xml:space="preserve">
<path fill="#333333" d="M23.516,4H0.484C0.218,4,0,3.782,0,3.516l0-3.033C0,0.218,0.218,0,0.484,0l23.033,0
	C23.782,0,24,0.218,24,0.484v3.033C24,3.782,23.782,4,23.516,4z"/>
<path fill="#333333" d="M23.516,10.75H0.484C0.218,10.75,0,10.532,0,10.266l0-3.033C0,6.968,0.218,6.75,0.484,6.75h23.033
	C23.782,6.75,24,6.968,24,7.234v3.033C24,10.532,23.782,10.75,23.516,10.75z"/>
<path fill="#333333" d="M23.516,17.5H0.484C0.218,17.5,0,17.282,0,17.016l0-3.033C0,13.718,0.218,13.5,0.484,13.5h23.033
	c0.266,0,0.484,0.218,0.484,0.484v3.033C24,17.282,23.782,17.5,23.516,17.5z"/>
<g>
	<path fill="#333333" d="M5.773,26.895c-0.012-0.893-0.043-1.772-0.093-2.635c-0.05-0.864-0.119-1.707-0.207-2.53H5.465
		l-1.763,5.165H2.864l-1.763-5.165H1.084c-0.076,0.811-0.138,1.651-0.185,2.521c-0.047,0.869-0.076,1.751-0.088,2.644H0
		c0.011-1.022,0.053-2.044,0.123-3.063c0.07-1.019,0.173-2.049,0.308-3.089h1.234l1.666,4.971h0.018l1.64-4.971h1.225
		c0.058,0.535,0.113,1.059,0.163,1.573c0.05,0.514,0.093,1.024,0.128,1.529c0.035,0.506,0.063,1.011,0.084,1.516
		c0.02,0.506,0.037,1.016,0.048,1.534H5.773z"/>
	<path fill="#333333" d="M8.214,26.895v-6.152h3.385v0.714H9.078v1.886h2.203v0.714H9.078v2.125h2.565v0.714H8.214z"/>
	<path fill="#333333" d="M16.543,26.895l-2.706-5.05H13.82v5.05h-0.802v-6.152h1.207l2.653,4.945h0.018v-4.945h0.802v6.152H16.543z"
		/>
	<path fill="#333333" d="M23.409,26.317C23.015,26.773,22.425,27,21.637,27c-1.539,0-2.309-0.875-2.309-2.626v-3.632h0.864v3.555
		c0,0.658,0.116,1.153,0.349,1.488c0.232,0.334,0.615,0.501,1.15,0.501c0.276,0,0.507-0.044,0.692-0.132
		c0.185-0.088,0.335-0.215,0.449-0.383c0.115-0.167,0.197-0.371,0.247-0.611c0.05-0.24,0.075-0.511,0.075-0.81v-3.608H24v3.561
		C24,25.19,23.803,25.862,23.409,26.317z"/>
</g>
</svg>
