<?xml version="1.0" encoding="utf-8"?>
<!-- Generator: Adobe Illustrator 18.1.1, SVG Export Plug-In . SVG Version: 6.00 Build 0)  -->
<!DOCTYPE svg PUBLIC "-//W3C//DTD SVG 1.1//EN" "http://www.w3.org/Graphics/SVG/1.1/DTD/svg11.dtd">
<svg version="1.1" id="Layer_2" xmlns="http://www.w3.org/2000/svg" xmlns:xlink="http://www.w3.org/1999/xlink" x="0px" y="0px"
	 viewBox="0 0 24 27" enable-background="new 0 0 24 27" xml:space="preserve">
<g>
	<path fill="#333333" d="M18.809,2.738L7.461,14.086c-0.624,0.624-1.645,0.624-2.27,0l0,0c-0.624-0.624-0.624-1.645,0-2.27
		L16.539,0.468c0.624-0.624,1.645-0.624,2.27,0l0,0C19.433,1.092,19.433,2.114,18.809,2.738z"/>
	<path fill="#333333" d="M16.539,14.086L5.191,2.738c-0.624-0.624-0.624-1.645,0-2.27l0,0c0.624-0.624,1.645-0.624,2.27,0
		l11.348,11.348c0.624,0.624,0.624,1.645,0,2.27l0,0C18.185,14.71,17.163,14.71,16.539,14.086z"/>
</g>
<g>
	<path fill="#333333" d="M4.028,25.005c0,0.349-0.064,0.653-0.193,0.91c-0.128,0.257-0.306,0.471-0.533,0.643
		c-0.227,0.171-0.494,0.3-0.8,0.386c-0.306,0.085-0.637,0.128-0.993,0.128c-0.257,0-0.512-0.018-0.766-0.054
		c-0.254-0.036-0.502-0.091-0.746-0.163l0.138-0.85c0.211,0.073,0.445,0.13,0.701,0.173c0.257,0.043,0.523,0.064,0.8,0.064
		c0.422,0,0.752-0.099,0.993-0.297s0.361-0.472,0.361-0.822c0-0.264-0.074-0.478-0.222-0.643c-0.148-0.165-0.336-0.31-0.563-0.436
		c-0.227-0.125-0.471-0.242-0.731-0.351s-0.504-0.24-0.731-0.395S0.328,22.955,0.18,22.73c-0.148-0.223-0.222-0.513-0.222-0.868
		c0-0.309,0.055-0.584,0.163-0.824c0.109-0.24,0.262-0.441,0.459-0.602s0.433-0.285,0.706-0.37c0.273-0.085,0.574-0.128,0.904-0.128
		c0.23,0,0.476,0.019,0.736,0.058c0.26,0.039,0.486,0.095,0.677,0.166l-0.178,0.783c-0.191-0.072-0.4-0.125-0.627-0.158
		c-0.227-0.033-0.449-0.049-0.667-0.049c-0.395,0-0.685,0.092-0.869,0.277s-0.277,0.435-0.277,0.752
		c0,0.238,0.076,0.434,0.227,0.589c0.152,0.155,0.339,0.292,0.563,0.41c0.224,0.119,0.467,0.235,0.731,0.347
		c0.263,0.113,0.507,0.249,0.731,0.411c0.223,0.162,0.411,0.359,0.563,0.593C3.952,24.353,4.028,24.649,4.028,25.005z"/>
	<path fill="#333333" d="M5.352,26.953v-6.895H6.32v6.096h2.727v0.8L5.352,26.953L5.352,26.953z"/>
	<path fill="#333333" d="M14.549,26.306c-0.441,0.511-1.103,0.765-1.986,0.765c-1.725,0-2.588-0.981-2.588-2.943v-4.07h0.968v3.984
		c0,0.737,0.13,1.293,0.391,1.667c0.26,0.375,0.69,0.562,1.289,0.562c0.31,0,0.568-0.049,0.776-0.148
		c0.207-0.098,0.375-0.241,0.503-0.429c0.129-0.187,0.221-0.416,0.277-0.685c0.056-0.269,0.084-0.572,0.084-0.908v-4.044h0.949
		v3.991C15.211,25.043,14.99,25.796,14.549,26.306z"/>
	<path fill="#333333" d="M16.989,26.953v-6.895h0.968v6.895H16.989z"/>
	<path fill="#333333" d="M21.978,20.858v6.096H21.01v-6.096h-2.055v-0.8h5.087v0.8H21.978z"/>
</g>
</svg>
