<?xml version="1.0" encoding="utf-8"?>
<!-- Generator: Adobe Illustrator 18.1.1, SVG Export Plug-In . SVG Version: 6.00 Build 0)  -->
<!DOCTYPE svg PUBLIC "-//W3C//DTD SVG 1.1//EN" "http://www.w3.org/Graphics/SVG/1.1/DTD/svg11.dtd">
<svg version="1.1" id="elementen" xmlns="http://www.w3.org/2000/svg" xmlns:xlink="http://www.w3.org/1999/xlink" x="0px" y="0px"
	 viewBox="0 0 21.831 22.8" enable-background="new 0 0 21.831 22.8" xml:space="preserve">
<path fill="#666666" d="M21.232,19.021l-4.876-4.875c1.024-1.461,1.631-3.234,1.631-5.154C17.987,4.025,13.958,0,8.995,0
	C4.027,0,0,4.025,0,8.992c0,4.966,4.027,8.994,8.995,8.994c1.414,0,2.747-0.336,3.938-0.919c0.022,0.025,0.039,0.054,0.064,0.078
	l5.056,5.056c0.8,0.799,2.095,0.799,2.892,0l0.289-0.287C22.031,21.116,22.031,19.82,21.232,19.021z M3.375,8.992
	c0-3.104,2.515-5.621,5.62-5.621c3.104,0,5.62,2.517,5.62,5.621s-2.516,5.62-5.62,5.62C5.89,14.612,3.375,12.097,3.375,8.992z"/>
</svg>
