<?xml version="1.0" encoding="utf-8"?>
<!-- Generator: Adobe Illustrator 18.1.1, SVG Export Plug-In . SVG Version: 6.00 Build 0)  -->
<!DOCTYPE svg PUBLIC "-//W3C//DTD SVG 1.1//EN" "http://www.w3.org/Graphics/SVG/1.1/DTD/svg11.dtd">
<svg version="1.1" id="elementen" xmlns="http://www.w3.org/2000/svg" xmlns:xlink="http://www.w3.org/1999/xlink" x="0px" y="0px"
	 viewBox="0 0 24 27" enable-background="new 0 0 24 27" xml:space="preserve">
<path fill="#009900" d="M23.341,21.878l-5.36-5.359c1.126-1.606,1.793-3.555,1.793-5.666c0-5.46-4.429-9.885-9.885-9.885
	C4.427,0.967,0,5.392,0,10.853c0,5.459,4.427,9.888,9.889,9.888c1.554,0,3.02-0.369,4.329-1.01c0.024,0.027,0.043,0.059,0.07,0.086
	l5.558,5.558c0.879,0.878,2.303,0.878,3.179,0l0.318-0.316C24.22,24.181,24.22,22.757,23.341,21.878z M3.71,10.853
	c0-3.412,2.765-6.179,6.178-6.179c3.412,0,6.178,2.767,6.178,6.179s-2.766,6.178-6.178,6.178C6.475,17.031,3.71,14.266,3.71,10.853z
	"/>
</svg>
